<svg width="50" height="51" viewBox="0 0 50 51" fill="none" xmlns="http://www.w3.org/2000/svg">
<g clip-path="url(#clip0_16_28)">
<path d="M40.6901 20.7183H35.8789V17.4761C35.8789 16.6671 35.223 16.0112 34.4141 16.0112H1.46484C0.655859 16.0112 0 16.6671 0 17.4761V44.1492C0 44.9582 0.655859 45.6141 1.46484 45.6141H6.45312C8.04727 51.8524 16.851 51.8482 18.4427 45.6141H31.5572C33.1514 51.8524 41.9551 51.8482 43.5468 45.6141H48.5352C49.3441 45.6141 50 44.9582 50 44.1492V30.0281C50 24.8946 45.8235 20.7183 40.6901 20.7183ZM12.4479 47.3914C10.6602 47.3914 9.20576 45.9369 9.20576 44.1492C9.38379 39.848 15.5128 39.8493 15.6901 44.1492C15.6901 45.9369 14.2356 47.3914 12.4479 47.3914ZM32.9492 40.0433C32.2866 40.7853 31.8009 41.6876 31.5572 42.6843H18.4427C16.8485 36.446 8.04482 36.4502 6.45312 42.6843H2.92969V18.9408H32.9492V40.0433ZM37.5521 47.3914C35.7643 47.3914 34.3099 45.9369 34.3099 44.1492C34.4879 39.848 40.6169 39.8493 40.7942 44.1492C40.7942 45.9369 39.3398 47.3914 37.5521 47.3914ZM47.0703 42.6844H43.5484C42.8891 39.9859 40.4508 37.9773 37.5521 37.9773H35.8789V23.6479H39.2253V33.1662C39.2253 33.9752 39.8812 34.6311 40.6901 34.6311H47.0703V42.6844ZM47.0703 31.7013H42.155V23.8176C44.9692 24.4813 47.0703 27.0141 47.0703 30.0281V31.7013Z" fill="#244D4D"/>
<path d="M35.9828 12.6648H39.9053C41.8489 12.5874 41.8474 9.8118 39.9053 9.73514H37.712L38.0082 7.95779H39.9053C41.8489 7.88035 41.8474 5.10477 39.9053 5.02811H38.4964L38.7926 3.25076H41.4743C43.4178 3.17332 43.4164 0.397736 41.4743 0.321075H37.5517C36.8356 0.321075 36.2245 0.838751 36.1068 1.5451L34.5378 10.9592C34.389 11.8522 35.0789 12.6648 35.9828 12.6648Z" fill="#222222"/>
<path d="M26.5686 12.6648H30.4912C32.4347 12.5874 32.4333 9.8118 30.4912 9.73514H28.2978L28.594 7.95779H30.4912C32.4347 7.88035 32.4333 5.10477 30.4912 5.02811H29.0824L29.3787 3.25076H32.0602C34.0038 3.17332 34.0023 0.397736 32.0602 0.321075H28.1377C27.4216 0.321075 26.8105 0.838751 26.6928 1.5451L25.1238 10.9592C24.975 11.8522 25.6648 12.6648 26.5686 12.6648Z" fill="#244D4D"/>
<path d="M15.3455 12.6449C16.4828 12.8345 16.9631 11.849 17.0312 11.4408L17.2714 9.99959L20.1553 12.3378C20.8219 12.8781 21.7379 12.7119 22.2158 12.1224C22.7253 11.494 22.6289 10.5716 22.0004 10.0621L20.3724 8.74227H21.7313C22.4473 8.74227 23.0584 8.22459 23.1762 7.51834L24.0917 2.02684C24.2406 1.13367 23.5507 0.321075 22.6468 0.321075H17.1553C16.4392 0.321075 15.8281 0.838751 15.7104 1.5451L14.8013 6.9992C14.8009 7.00115 14.8007 7.0032 14.8003 7.00516C14.7996 7.00906 14.7991 7.01297 14.7984 7.01688C14.7952 7.03475 14.7919 7.05272 14.7894 7.07078L14.1413 10.9592C14.0082 11.7571 14.5474 12.5119 15.3455 12.6449ZM18.3962 3.25076H20.9175L20.4905 5.81258H17.9692L18.3962 3.25076Z" fill="#244D4D"/>
<path d="M6.7155 12.6449C7.8528 12.8345 8.33317 11.8489 8.40124 11.4408L8.85095 8.74239H10.8788C12.8223 8.66495 12.8209 5.88936 10.8788 5.8127H9.33923L9.76618 3.25088H12.4478C14.3914 3.17344 14.3899 0.397858 12.4478 0.321198H8.52526C7.80915 0.321198 7.19802 0.838873 7.08034 1.54522L5.5114 10.9593C5.37829 11.7571 5.91745 12.5119 6.7155 12.6449Z" fill="#244D4D"/>
</g>
<defs>
<clipPath id="clip0_16_28">
<rect width="50" height="50" fill="white" transform="translate(0 0.306152)"/>
</clipPath>
</defs>
</svg>
