<svg width="11" height="11" viewBox="0 0 11 11" fill="none" xmlns="http://www.w3.org/2000/svg">
<g clip-path="url(#clip0_51_3)">
<path d="M5.9414 10.1844C5.79903 10.1844 5.66178 10.1328 5.55482 10.0391C5.15084 9.68587 4.76136 9.35391 4.41773 9.0611L4.41598 9.05957C3.40852 8.20104 2.53854 7.45961 1.93323 6.72925C1.25658 5.91276 0.941406 5.1386 0.941406 4.29289C0.941406 3.4712 1.22316 2.71315 1.73471 2.15826C2.25236 1.59682 2.96266 1.2876 3.73498 1.2876C4.31222 1.2876 4.84086 1.47009 5.30617 1.82997C5.54101 2.01163 5.75387 2.23395 5.9414 2.49327C6.129 2.23395 6.34179 2.01163 6.57669 1.82997C7.04201 1.47009 7.57065 1.2876 8.14789 1.2876C8.92014 1.2876 9.63051 1.59682 10.1482 2.15826C10.6597 2.71315 10.9414 3.4712 10.9414 4.29289C10.9414 5.1386 10.6263 5.91276 9.94964 6.72918C9.34433 7.45961 8.47443 8.20096 7.46712 9.05942C7.12288 9.35269 6.73279 9.68518 6.3279 10.0393C6.22101 10.1328 6.08368 10.1844 5.9414 10.1844ZM3.73498 1.87338C3.12822 1.87338 2.57081 2.11554 2.16531 2.5553C1.75378 3.00169 1.52711 3.61875 1.52711 4.29289C1.52711 5.00417 1.79147 5.64031 2.3842 6.35549C2.95709 7.04679 3.80921 7.77295 4.79585 8.61379L4.79768 8.61531C5.1426 8.90927 5.53361 9.24252 5.94056 9.59836C6.34995 9.24184 6.74157 8.90805 7.08718 8.61363C8.07373 7.7728 8.92578 7.04679 9.49867 6.35549C10.0913 5.64031 10.3557 5.00417 10.3557 4.29289C10.3557 3.61875 10.129 3.00169 9.71748 2.5553C9.31206 2.11554 8.75458 1.87338 8.14789 1.87338C7.7034 1.87338 7.29531 2.01468 6.93497 2.2933C6.61385 2.54172 6.39016 2.85574 6.25901 3.07547C6.19156 3.18846 6.07285 3.2559 5.9414 3.2559C5.80994 3.2559 5.69123 3.18846 5.62379 3.07547C5.49271 2.85574 5.26902 2.54172 4.94782 2.2933C4.58749 2.01468 4.17939 1.87338 3.73498 1.87338Z" fill="black"/>
</g>
<defs>
<clipPath id="clip0_51_3">
<rect width="10" height="9.99998" fill="white" transform="translate(0.941406 0.740723)"/>
</clipPath>
</defs>
</svg>
