<svg width="16" height="17" viewBox="0 0 16 17" fill="none" xmlns="http://www.w3.org/2000/svg">
<g clip-path="url(#clip0_52_89)">
<path d="M12.4454 8.24384L5.32522 1.12377C5.16054 0.95896 4.9407 0.868164 4.7063 0.868164C4.47189 0.868164 4.25206 0.95896 4.08738 1.12377L3.56302 1.648C3.22182 1.98959 3.22182 2.54477 3.56302 2.88584L9.54203 8.86485L3.55639 14.8505C3.39171 15.0153 3.30078 15.235 3.30078 15.4693C3.30078 15.7038 3.39171 15.9235 3.55639 16.0885L4.08074 16.6126C4.24555 16.7774 4.46526 16.8682 4.69966 16.8682C4.93407 16.8682 5.1539 16.7774 5.31859 16.6126L12.4454 9.48598C12.6105 9.32065 12.7012 9.0999 12.7006 8.86524C12.7012 8.62966 12.6105 8.40905 12.4454 8.24384Z" fill="#666666"/>
</g>
<defs>
<clipPath id="clip0_52_89">
<rect width="16" height="16" fill="white" transform="translate(0 0.868164)"/>
</clipPath>
</defs>
</svg>
