<svg width="16" height="17" viewBox="0 0 16 17" fill="none" xmlns="http://www.w3.org/2000/svg">
<g clip-path="url(#clip0_57_368)">
<path d="M15.7821 8.18673L11.0208 3.4254C10.7303 3.13489 10.2591 3.13489 9.96863 3.4254C9.67807 3.71596 9.67807 4.18697 9.96863 4.47753L13.4599 7.96884H0.743959C0.333115 7.96884 0 8.30196 0 8.7128C0 9.12359 0.333115 9.45676 0.743959 9.45676H13.4599L9.96875 12.9481C9.67819 13.2386 9.67819 13.7096 9.96875 14.0002C10.114 14.1454 10.3044 14.2181 10.4948 14.2181C10.6852 14.2181 10.8756 14.1454 11.0209 14.0002L15.7821 9.23887C16.0727 8.94831 16.0727 8.47729 15.7821 8.18673Z" fill="white"/>
</g>
<defs>
<clipPath id="clip0_57_368">
<rect width="16" height="16" fill="white" transform="translate(0 0.712891)"/>
</clipPath>
</defs>
</svg>
