<svg width="50" height="51" viewBox="0 0 50 51" fill="none" xmlns="http://www.w3.org/2000/svg">
<g clip-path="url(#clip0_16_42)">
<path d="M47.3217 18.5377C46.6619 16.4947 46.9432 13.428 45.2283 11.0602C43.5 8.67365 40.494 7.99533 38.7967 6.75393C37.1172 5.52561 35.5547 2.85266 32.7296 1.93078C29.9842 1.03488 27.1768 2.25061 25 2.25061C22.8235 2.25061 20.0163 1.03459 17.2704 1.93068C14.4458 2.85236 12.882 5.5259 11.2036 6.75363C9.50811 7.99358 6.4999 8.67375 4.77187 11.0599C3.0585 13.4258 3.33691 16.4995 2.67832 18.5376C2.05156 20.4774 0 22.8054 0 25.8202C0 28.8369 2.04922 31.156 2.67832 33.1028C3.33809 35.1457 3.05684 38.2124 4.77168 40.5803C6.4999 42.9669 9.50576 43.6451 11.2033 44.8866C12.8825 46.1148 14.4453 48.7879 17.2704 49.7097C20.014 50.605 22.8258 49.3899 25 49.3899C27.1712 49.3899 29.9896 50.6037 32.7296 49.7098C35.5543 48.7881 37.1171 46.1152 38.7964 44.8868C40.4919 43.6469 43.5001 42.9667 45.2281 40.5806C46.9416 38.2146 46.663 35.1411 47.3217 33.1029C47.9484 31.163 50 28.835 50 25.8202C50 22.8037 47.9513 20.4854 47.3217 18.5377ZM43.6048 31.9017C42.8357 34.2821 43.0372 36.946 42.0646 38.2892C41.0788 39.6502 38.4891 40.2719 36.4907 41.7336C34.5143 43.179 33.129 45.4703 31.5179 45.996C29.9937 46.4935 27.5097 45.4834 25.0001 45.4834C22.4722 45.4834 20.0138 46.4956 18.4822 45.996C16.8713 45.4703 15.488 43.1806 13.5094 41.7335C11.5229 40.2807 8.91836 39.6462 7.93545 38.289C6.96592 36.9503 7.15977 34.2679 6.39541 31.9018C5.64619 29.5835 3.90625 27.5762 3.90625 25.8202C3.90625 24.0625 5.64463 22.0621 6.39522 19.7388C7.16426 17.3585 6.96279 14.6944 7.93545 13.3513C8.92061 11.9911 11.5123 11.3674 13.5094 9.90686C15.4921 8.45676 16.8687 6.17092 18.482 5.64445C20.005 5.14758 22.4971 6.15705 24.9999 6.15705C27.5324 6.15705 29.9847 5.14416 31.5178 5.64445C33.1285 6.17004 34.513 8.46067 36.4907 9.90695C38.477 11.3598 41.0816 11.9943 42.0646 13.3514C43.0343 14.6904 42.8394 17.37 43.6046 19.7386V19.7387C44.3538 22.057 46.0938 24.0643 46.0938 25.8202C46.0938 27.578 44.3554 29.5783 43.6048 31.9017ZM33.9983 19.5512C34.7611 20.314 34.7611 21.5506 33.9983 22.3133L24.2224 32.0893C23.4596 32.8521 22.2229 32.852 21.4602 32.0893L16.0018 26.6309C15.239 25.8681 15.2389 24.6315 16.0017 23.8688C16.7645 23.1061 18.0013 23.106 18.7638 23.8688L22.8412 27.9461L31.236 19.5513C31.9988 18.7885 33.2355 18.7885 33.9983 19.5512Z" fill="#244D4D"/>
</g>
<defs>
<clipPath id="clip0_16_42">
<rect width="50" height="50" fill="white" transform="translate(0 0.820068)"/>
</clipPath>
</defs>
</svg>
