<svg width="50" height="51" viewBox="0 0 50 51" fill="none" xmlns="http://www.w3.org/2000/svg">
<g clip-path="url(#clip0_14_9)">
<path d="M46.239 14.3875L46.2374 14.3486C46.2157 13.8683 46.2012 13.3602 46.1924 12.7948C46.1516 10.038 43.9601 7.75755 41.2028 7.60343C35.4541 7.28262 31.0069 5.40808 27.2071 1.7044L27.1747 1.6735C25.9353 0.537106 24.0657 0.537106 22.8259 1.6735L22.7935 1.7044C18.9937 5.40808 14.5465 7.28262 8.7978 7.60381C6.04093 7.75755 3.84901 10.038 3.80819 12.7952C3.7998 13.3567 3.78492 13.8649 3.76318 14.3486L3.76089 14.439C3.64912 20.301 3.51027 27.5966 5.9509 34.2185C7.29291 37.86 9.32538 41.0254 11.9915 43.6274C15.028 46.5907 19.0051 48.9432 23.8124 50.6194C23.9688 50.6739 24.1313 50.7182 24.2969 50.7514C24.5303 50.7979 24.7653 50.8212 25.0003 50.8212C25.2353 50.8212 25.4707 50.7979 25.7037 50.7514C25.8693 50.7182 26.0329 50.6735 26.1901 50.6186C30.9916 48.9394 34.9646 46.5857 37.9985 43.6228C40.6634 41.0201 42.6959 37.8539 44.039 34.2116C46.4888 27.5699 46.3503 20.2606 46.239 14.3875ZM41.2863 33.1965C38.7122 40.1759 33.4575 44.9691 25.2219 47.8491C25.1926 47.8591 25.1613 47.8678 25.1289 47.8743C25.0438 47.8911 24.9572 47.8911 24.871 47.8739C24.8389 47.8675 24.8077 47.8591 24.7787 47.8491C16.5344 44.9744 11.2762 40.1839 8.70396 33.2042C6.45444 27.1003 6.58185 20.4032 6.69439 14.495L6.69515 14.4622C6.71804 13.9545 6.7333 13.4227 6.74169 12.8383C6.76 11.6142 7.73503 10.6014 8.96145 10.5331C12.2146 10.3515 15.0726 9.72287 17.6986 8.61127C20.3212 7.5012 22.6505 5.93641 24.8187 3.82766C24.929 3.73458 25.072 3.7342 25.1819 3.82766C27.3505 5.93641 29.6798 7.5012 32.302 8.61127C34.928 9.72287 37.786 10.3515 41.0395 10.5331C42.266 10.6014 43.241 11.6142 43.2589 12.8387C43.2677 13.4262 43.283 13.9579 43.3058 14.4622C43.418 20.3773 43.5424 27.0797 41.2863 33.1965Z" fill="#244D4D"/>
<path d="M24.9998 13.3614C18.1287 13.3614 12.5391 18.9514 12.5391 25.8221C12.5391 32.6931 18.1287 38.2832 24.9998 38.2832C31.8704 38.2832 37.4605 32.6931 37.4605 25.8221C37.4605 18.9514 31.8704 13.3614 24.9998 13.3614ZM24.9998 35.3489C19.7466 35.3489 15.4729 31.0753 15.4729 25.8221C15.4729 20.5688 19.7466 16.2952 24.9998 16.2952C30.2526 16.2952 34.5262 20.5688 34.5262 25.8221C34.5262 31.0753 30.2526 35.3489 24.9998 35.3489Z" fill="#244D4D"/>
<path d="M28.5806 21.9536L22.7929 27.7412L21.222 26.1704C20.6491 25.5974 19.7202 25.5974 19.1472 26.1704C18.5746 26.7433 18.5746 27.6722 19.1472 28.2448L21.7557 30.8533C22.0422 31.1398 22.4176 31.2828 22.7929 31.2828C23.1683 31.2828 23.5437 31.1398 23.8301 30.8533L30.6554 24.028C31.228 23.4551 31.228 22.5262 30.6554 21.9536C30.0824 21.3802 29.1535 21.3802 28.5806 21.9536Z" fill="#244D4D"/>
</g>
<defs>
<clipPath id="clip0_14_9">
<rect width="50" height="50" fill="white" transform="translate(0 0.821289)"/>
</clipPath>
</defs>
</svg>
