<svg width="16" height="17" viewBox="0 0 16 17" fill="none" xmlns="http://www.w3.org/2000/svg">
<g clip-path="url(#clip0_52_90)">
<path d="M3.55458 9.49248L10.6748 16.6126C10.8395 16.7774 11.0593 16.8682 11.2937 16.8682C11.5281 16.8682 11.7479 16.7774 11.9126 16.6126L12.437 16.0883C12.7782 15.7467 12.7782 15.1916 12.437 14.8505L6.45797 8.87148L12.4436 2.88584C12.6083 2.72103 12.6992 2.50132 12.6992 2.26705C12.6992 2.03251 12.6083 1.81281 12.4436 1.64787L11.9193 1.12377C11.7544 0.958961 11.5347 0.868165 11.3003 0.868165C11.0659 0.868165 10.8461 0.958961 10.6814 1.12377L3.55458 8.25035C3.38951 8.41568 3.29884 8.63643 3.29936 8.87109C3.29884 9.10667 3.38951 9.32728 3.55458 9.49248Z" fill="#666666"/>
</g>
<defs>
<clipPath id="clip0_52_90">
<rect width="16" height="16" fill="white" transform="translate(16 16.8682) rotate(-180)"/>
</clipPath>
</defs>
</svg>
