<svg width="17" height="17" viewBox="0 0 17 17" fill="none" xmlns="http://www.w3.org/2000/svg">
<g clip-path="url(#clip0_57_325)">
<path d="M11.1309 8.28471L16.5248 11.6947V4.73071L11.1309 8.28471Z" fill="#7F7F7F"/>
<path d="M0.525391 4.73071V11.6947L5.91939 8.28471L0.525391 4.73071Z" fill="#7F7F7F"/>
<path d="M15.5257 2.70264H1.52566C1.02666 2.70264 0.630664 3.07464 0.555664 3.55364L8.52566 8.80464L16.4957 3.55364C16.4207 3.07464 16.0247 2.70264 15.5257 2.70264Z" fill="#7F7F7F"/>
<path d="M10.2156 8.88869L8.80062 9.82069C8.71662 9.87569 8.62162 9.90269 8.52562 9.90269C8.42962 9.90269 8.33462 9.87569 8.25062 9.82069L6.83562 8.8877L0.557617 12.8587C0.634617 13.3337 1.02862 13.7027 1.52562 13.7027H15.5256C16.0226 13.7027 16.4166 13.3337 16.4936 12.8587L10.2156 8.88869Z" fill="#7F7F7F"/>
</g>
<defs>
<clipPath id="clip0_57_325">
<rect width="16" height="16" fill="white" transform="translate(0.525391 0.202637)"/>
</clipPath>
</defs>
</svg>
