<svg width="11" height="11" viewBox="0 0 11 11" fill="none" xmlns="http://www.w3.org/2000/svg">
<g clip-path="url(#clip0_51_8)">
<path d="M8.87109 7.2251C8.29227 7.2251 7.77795 7.50639 7.45746 7.93938L4.69828 6.52932C4.74457 6.37205 4.76953 6.20574 4.76953 6.03369C4.76953 5.80066 4.72385 5.57814 4.64113 5.37445L7.53293 3.63699C7.85559 4.0157 8.33574 4.25635 8.87109 4.25635C9.84035 4.25635 10.6289 3.46779 10.6289 2.49854C10.6289 1.52928 9.84035 0.740723 8.87109 0.740723C7.90184 0.740723 7.11328 1.52928 7.11328 2.49854C7.11328 2.72256 7.15549 2.93688 7.23223 3.13408L4.3332 4.87588C4.01078 4.50834 3.53791 4.27588 3.01172 4.27588C2.04246 4.27588 1.25391 5.06443 1.25391 6.03369C1.25391 7.00295 2.04246 7.7915 3.01172 7.7915C3.60004 7.7915 4.12172 7.50096 4.44096 7.05584L7.19213 8.4618C7.1409 8.62652 7.11328 8.80154 7.11328 8.98291C7.11328 9.95217 7.90184 10.7407 8.87109 10.7407C9.84035 10.7407 10.6289 9.95217 10.6289 8.98291C10.6289 8.01365 9.84035 7.2251 8.87109 7.2251ZM8.87109 1.32666C9.51727 1.32666 10.043 1.85236 10.043 2.49854C10.043 3.14471 9.51727 3.67041 8.87109 3.67041C8.22492 3.67041 7.69922 3.14471 7.69922 2.49854C7.69922 1.85236 8.22492 1.32666 8.87109 1.32666ZM3.01172 7.20557C2.36555 7.20557 1.83984 6.67986 1.83984 6.03369C1.83984 5.38752 2.36555 4.86182 3.01172 4.86182C3.65789 4.86182 4.18359 5.38752 4.18359 6.03369C4.18359 6.67986 3.65789 7.20557 3.01172 7.20557ZM8.87109 10.1548C8.22492 10.1548 7.69922 9.62908 7.69922 8.98291C7.69922 8.33674 8.22492 7.81104 8.87109 7.81104C9.51727 7.81104 10.043 8.33674 10.043 8.98291C10.043 9.62908 9.51727 10.1548 8.87109 10.1548Z" fill="black"/>
</g>
<defs>
<clipPath id="clip0_51_8">
<rect width="10" height="10" fill="white" transform="translate(0.941406 0.740723)"/>
</clipPath>
</defs>
</svg>
